<svg version="1.0" xmlns="http://www.w3.org/2000/svg" width="440" height="440" viewBox="0 0 330 330"><path d="M25.4 135.9c.4.6 1.6 1.1 2.7 1.1 1.8 0 1.9.9 1.9 23v23l-3.2 1.4c-3.2 1.4-3.1 1.4 4.2 1.4 7.3 0 7.4 0 4.3-1.4L32 183v-17.8l.1-17.7 2.6 3c1.4 1.6 9.3 10.8 17.6 20.3 8.2 9.4 15.3 17 15.8 16.6.5-.3.9-11.3.9-24.9 0-26.4-.2-25.5 5.6-25.5H77v47l-2.5.6c-4.6 1.2-2.6 2.4 4 2.4s8.6-1.2 4-2.4L80 184v-38.5l4.9 9c2.6 4.9 7.7 14.4 11.2 20.9 3.5 6.6 6.9 11.9 7.4 11.9.6 0 4.9-9.7 9.7-21.4l8.7-21.4.1 20.2c0 19.6-.1 20.3-2 20.3-1.1 0-2 .4-2 1s4.2 1 10.5 1c5.8 0 10.5-.2 10.5-.5s-1.1-1-2.5-1.5l-2.5-1v-46.6l2.8-1.2c2.3-1 1.8-1.1-4.4-.9-4 .1-7.8.8-8.7 1.5-.9.8-4.6 9-8.3 18.3l-6.8 16.9-4-7.5c-2.3-4.1-6.5-12-9.4-17.4-3.9-7.2-6.1-10.2-8.1-11-1.6-.7-7.4-1.1-14.6-.9-11.1.3-11.8.4-8.7 1.7l3.2 1.3v14.4c0 7.9-.2 14.4-.4 14.4-.3 0-5.9-6.2-12.4-13.8-15.7-18.1-15-17.5-22.9-18-4.7-.3-6.4-.1-5.9.7zm125.6 8.6c0 7.8.3 9.5 1.5 9.5s1.5-1.7 1.5-9.5-.3-9.5-1.5-9.5-1.5 1.7-1.5 9.5zm16.8-8.8c.8.3 1.2 3.6 1.2 11.3 0 7.7-.4 11-1.2 11.3-.7.3.2.6 2.1.6 3.1.1 3.3-.1 1.7-1.2-1.4-1-1.6-2.6-1.4-8.9l.3-7.7 8 9.6 8 9.5.3-11.8c.2-7.9.7-12.1 1.5-12.6.7-.5 0-.7-1.8-.7-1.6 0-2.4.3-1.7.6.8.3 1.2 2.8 1.2 7.4v7l-6.6-7.6c-5.6-6.5-7-7.5-9.7-7.4-1.8 0-2.6.3-1.9.6zm30.5.3c-3.1 1.3-6.3 6.8-6.3 10.8 0 4.4 2.4 9.8 4.8 11.1 2.4 1.3 6.4 1.5 4.5.3-1.9-1.2-3.3-6-3.3-11.5 0-6.6 1.8-10.2 5-10.2s5 3.6 5 10.2c0 5.5-1.4 10.3-3.3 11.5-.7.5-.3.8 1.1.8 7.6 0 11-15 4.8-20.9-2.7-2.5-8.9-3.6-12.3-2.1zm27.4-.3c-.3.4-2.4 5.3-4.6 10.8-2.3 5.5-4.9 10.6-5.8 11.2-1.5 1.1-1.2 1.3 1.8 1.3 2.4 0 3-.3 2-.9-1.2-.8-1.3-1.4-.3-3.5 1-2.2 1.8-2.6 5.2-2.6 3 0 4.2.5 4.7 1.7 1.2 3.4 3.6 5.3 6.7 5.3 1.7 0 2.6-.4 2-.8-.6-.4-3.1-5.4-5.4-11.2-4.6-11.1-5.5-12.7-6.3-11.3zm-.1 10.8c1.9 4.6 1.9 4.5-2 4.5h-3.4l1.5-4c.9-2.2 1.8-4 2-4 .2 0 1.1 1.6 1.9 3.5zm15.2-.4c.3 8.5 0 11.4-1 12-.8.5.9.8 4.2.8 3 0 4.9-.3 4.3-.6-.8-.3-1.3-2.5-1.3-5.9V147h7v5.4c0 3.4-.5 5.6-1.2 5.9-.7.3.7.6 3.2.6l4.5.1v-24l-4.5.1c-2.5 0-3.9.3-3.2.6.7.3 1.2 2.4 1.2 5.4v4.9h-7v-4.9c0-3 .5-5.1 1.3-5.4.6-.3-.8-.6-3.3-.6l-4.5-.1.3 11.1zM151 161c0 1.1.7 2 1.5 2s1.5-.9 1.5-2-.7-2-1.5-2-1.5.9-1.5 2zm16.8 2.6c.8.4 1.2 3.7 1.2 11.4s-.4 11-1.2 11.3c-.7.3.2.6 2.1.6 3.1.1 3.3-.1 1.7-1.2-1.4-1-1.6-2.6-1.4-9.7l.3-8.4 5 9.7c2.8 5.3 5.3 9.7 5.6 9.7.3 0 2.1-3.8 3.9-8.5 1.8-4.7 3.7-8.8 4.2-9.1.4-.3.8 3.3.8 8 0 5.8-.4 8.6-1.2 8.9-.7.3 1 .5 3.7.5 2.8 0 4.4-.2 3.8-.5-.9-.3-1.3-3.6-1.3-11.3 0-7.7.4-11 1.3-11.3.6-.3-.2-.6-1.9-.6-3.9-.1-4.5.6-8.1 9.7l-2.9 7.3-4.5-8.3c-4.3-8.2-4.5-8.3-8.4-8.5-2.2-.1-3.4 0-2.7.3zm33.7 11.4v12l4.5-.1c2.5 0 3.9-.3 3.3-.6-.9-.3-1.3-3.6-1.3-11.3 0-7.7.4-11 1.3-11.3.6-.3-.8-.6-3.3-.6l-4.5-.1v12zm13.8-9.6c-2.4 2.1-2.6 2.7-1.8 5.2.6 1.8 3.1 4.2 6.3 6.3 5.6 3.6 6.9 7 3.5 9-1.5.9-1.4 1 1 1.1 3.1 0 6.7-3.1 6.7-5.8 0-2.7-2.6-5.9-7-8.3-5.8-3.3-6.5-7-1.6-8.9 1.8-.8 1.7-.9-1.1-.9-2-.1-4.2.8-6 2.3zm12.2-1.4c-.4.6-1.1.7-1.7.4-.5-.4-.2.5.7 2 2.3 3.4 3.5 3.3 3.5-.4 0-3-1.3-4-2.5-2zm5.5 2.1c0 2.7.2 3 1.5 1.9.8-.7 1.5-1.9 1.5-2.6 0-.8.9-1.4 2-1.4 1.9 0 2 .7 2 10.9 0 7.8-.4 11.1-1.2 11.4-.7.3.7.6 3.2.6l4.5.1-.3-11.5c-.3-10-.1-11.5 1.3-11.5.8 0 2 1.1 2.5 2.5 1.3 3.4 3 3.1 3-.5v-3h-20v3.1zm22.8-2.5c.8.4 1.2 3.7 1.2 11.4s-.4 11-1.2 11.3c-.7.3 1.2.5 4.2.5s4.9-.2 4.3-.5c-1.6-.6-1.8-10.3-.3-10.3.6 0 2 2.1 3.1 4.7 2.3 5.5 3.3 6.3 7.4 6.3 1.7 0 2.5-.4 1.8-.8-.6-.4-1.9-2.6-2.8-4.9-.9-2.3-2.4-4.4-3.3-4.8-1.3-.5-.9-1 1.6-2.5 3.8-2.3 4.2-5.8 1.1-8.6-1.6-1.5-3.9-1.9-10.3-2.1-4.4-.2-7.5 0-6.8.3zm12 1.6c.7.7 1.2 2.6 1.2 4.3 0 3.5-1.5 5.5-4.2 5.5-1.5 0-1.8-.9-1.8-5.5s.3-5.5 1.8-5.5c1 0 2.3.5 3 1.2zm13.3 5c4 7.6 5.2 15.1 2.7 16.1-.7.3 1 .5 3.7.5 2.8 0 4.4-.2 3.8-.5-2.4-.9-1.4-7.7 2.1-15 1.9-3.9 4-7.3 4.8-7.6.7-.3-.3-.6-2.2-.6-2.1 0-3 .2-2.2.7 1 .7.8 2-.9 6-1.2 2.9-2.4 5.2-2.8 5.2-.3 0-1.9-2.6-3.6-5.8-2.6-4.9-3.4-5.7-6.2-6l-3.1-.3 3.9 7.3zM151 178.5c0 7.8.3 9.5 1.5 9.5s1.5-1.7 1.5-9.5-.3-9.5-1.5-9.5-1.5 1.7-1.5 9.5zm62 4.5c0 3.3.2 3.5 3.4 3.6 3.2 0 3.3 0 1.5-1.5-1-.9-2.5-2.5-3.4-3.6-1.4-1.9-1.4-1.8-1.5 1.5z"/></svg>