<?xml version="1.0" standalone="no"?>
<!DOCTYPE svg PUBLIC "-//W3C//DTD SVG 20010904//EN"
 "http://www.w3.org/TR/2001/REC-SVG-20010904/DTD/svg10.dtd">
<svg version="1.0" xmlns="http://www.w3.org/2000/svg"
 width="330.000000pt" height="330.000000pt" viewBox="0 0 330.000000 330.000000"
 preserveAspectRatio="xMidYMid meet">
<metadata>
Created by potrace 1.11, written by Peter Selinger 2001-2013
</metadata>
<g transform="translate(0.000000,330.000000) scale(0.100000,-0.100000)"
fill="#000000" stroke="none">
<path d="M254 1941 c4 -6 16 -11 27 -11 18 0 19 -9 19 -230 l0 -230 -32 -14
c-32 -14 -31 -14 42 -14 73 0 74 0 43 14 l-33 14 0 178 1 177 26 -30 c14 -16
93 -108 176 -203 82 -94 153 -170 158 -166 5 3 9 113 9 249 0 264 -2 255 56
255 l24 0 0 -235 0 -235 -25 -6 c-46 -12 -26 -24 40 -24 66 0 86 12 40 24
l-25 6 0 193 0 192 49 -90 c26 -49 77 -144 112 -209 35 -66 69 -119 74 -119 6
0 49 97 97 214 l87 214 1 -202 c0 -196 -1 -203 -20 -203 -11 0 -20 -4 -20 -10
0 -6 42 -10 105 -10 58 0 105 2 105 5 0 3 -11 10 -25 15 l-25 10 0 233 0 233
28 12 c23 10 18 11 -44 9 -40 -1 -78 -8 -87 -15 -9 -8 -46 -90 -83 -183 l-68
-169 -40 75 c-23 41 -65 120 -94 174 -39 72 -61 102 -81 110 -16 7 -74 11
-146 9 -111 -3 -118 -4 -87 -17 l32 -13 0 -144 c0 -79 -2 -144 -4 -144 -3 0
-59 62 -124 138 -157 181 -150 175 -229 180 -47 3 -64 1 -59 -7z"/>
<path d="M1510 1855 c0 -78 3 -95 15 -95 12 0 15 17 15 95 0 78 -3 95 -15 95
-12 0 -15 -17 -15 -95z"/>
<path d="M1678 1943 c8 -3 12 -36 12 -113 0 -77 -4 -110 -12 -113 -7 -3 2 -6
21 -6 31 -1 33 1 17 12 -14 10 -16 26 -14 89 l3 77 80 -96 80 -95 3 118 c2 79
7 121 15 126 7 5 0 7 -18 7 -16 0 -24 -3 -17 -6 8 -3 12 -28 12 -74 l0 -70
-66 76 c-56 65 -70 75 -97 74 -18 0 -26 -3 -19 -6z"/>
<path d="M1983 1940 c-31 -13 -63 -68 -63 -108 0 -44 24 -98 48 -111 24 -13
64 -15 45 -3 -19 12 -33 60 -33 115 0 66 18 102 50 102 32 0 50 -36 50 -102 0
-55 -14 -103 -33 -115 -7 -5 -3 -8 11 -8 76 0 110 150 48 209 -27 25 -89 36
-123 21z"/>
<path d="M2257 1943 c-3 -4 -24 -53 -46 -108 -23 -55 -49 -106 -58 -112 -15
-11 -12 -13 18 -13 24 0 30 3 20 9 -12 8 -13 14 -3 35 10 22 18 26 52 26 30 0
42 -5 47 -17 12 -34 36 -53 67 -53 17 0 26 4 20 8 -6 4 -31 54 -54 112 -46
111 -55 127 -63 113z m-1 -108 c19 -46 19 -45 -20 -45 l-34 0 15 40 c9 22 18
40 20 40 2 0 11 -16 19 -35z"/>
<path d="M2408 1839 c3 -85 0 -114 -10 -120 -8 -5 9 -8 42 -8 30 0 49 3 43 6
-8 3 -13 25 -13 59 l0 54 35 0 35 0 0 -54 c0 -34 -5 -56 -12 -59 -7 -3 7 -6
32 -6 l45 -1 0 120 0 120 -45 -1 c-25 0 -39 -3 -32 -6 7 -3 12 -24 12 -54 l0
-49 -35 0 -35 0 0 49 c0 30 5 51 13 54 6 3 -8 6 -33 6 l-45 1 3 -111z"/>
<path d="M1510 1690 c0 -11 7 -20 15 -20 8 0 15 9 15 20 0 11 -7 20 -15 20 -8
0 -15 -9 -15 -20z"/>
<path d="M1678 1664 c8 -4 12 -37 12 -114 0 -77 -4 -110 -12 -113 -7 -3 2 -6
21 -6 31 -1 33 1 17 12 -14 10 -16 26 -14 97 l3 84 50 -97 c28 -53 53 -97 56
-97 3 0 21 38 39 85 18 47 37 88 42 91 4 3 8 -33 8 -80 0 -58 -4 -86 -12 -89
-7 -3 10 -5 37 -5 28 0 44 2 38 5 -9 3 -13 36 -13 113 0 77 4 110 13 113 6 3
-2 6 -19 6 -39 1 -45 -6 -81 -97 l-29 -73 -45 83 c-43 82 -45 83 -84 85 -22 1
-34 0 -27 -3z"/>
<path d="M2015 1550 l0 -120 45 1 c25 0 39 3 33 6 -9 3 -13 36 -13 113 0 77 4
110 13 113 6 3 -8 6 -33 6 l-45 1 0 -120z"/>
<path d="M2153 1646 c-24 -21 -26 -27 -18 -52 6 -18 31 -42 63 -63 56 -36 69
-70 35 -90 -15 -9 -14 -10 10 -11 31 0 67 31 67 58 0 27 -26 59 -70 83 -58 33
-65 70 -16 89 18 8 17 9 -11 9 -20 1 -42 -8 -60 -23z"/>
<path d="M2275 1660 c-4 -6 -11 -7 -17 -4 -5 4 -2 -5 7 -20 23 -34 35 -33 35
4 0 30 -13 40 -25 20z"/>
<path d="M2330 1639 c0 -27 2 -30 15 -19 8 7 15 19 15 26 0 8 9 14 20 14 19 0
20 -7 20 -109 0 -78 -4 -111 -12 -114 -7 -3 7 -6 32 -6 l45 -1 -3 115 c-3 100
-1 115 13 115 8 0 20 -11 25 -25 13 -34 30 -31 30 5 l0 30 -100 0 -100 0 0
-31z"/>
<path d="M2558 1664 c8 -4 12 -37 12 -114 0 -77 -4 -110 -12 -113 -7 -3 12 -5
42 -5 30 0 49 2 43 5 -16 6 -18 103 -3 103 6 0 20 -21 31 -47 23 -55 33 -63
74 -63 17 0 25 4 18 8 -6 4 -19 26 -28 49 -9 23 -24 44 -33 48 -13 5 -9 10 16
25 38 23 42 58 11 86 -16 15 -39 19 -103 21 -44 2 -75 0 -68 -3z m120 -16 c7
-7 12 -26 12 -43 0 -35 -15 -55 -42 -55 -15 0 -18 9 -18 55 0 46 3 55 18 55
10 0 23 -5 30 -12z"/>
<path d="M2811 1598 c40 -76 52 -151 27 -161 -7 -3 10 -5 37 -5 28 0 44 2 38
5 -24 9 -14 77 21 150 19 39 40 73 48 76 7 3 -3 6 -22 6 -21 0 -30 -2 -22 -7
10 -7 8 -20 -9 -60 -12 -29 -24 -52 -28 -52 -3 0 -19 26 -36 58 -26 49 -34 57
-62 60 l-31 3 39 -73z"/>
<path d="M1510 1515 c0 -78 3 -95 15 -95 12 0 15 17 15 95 0 78 -3 95 -15 95
-12 0 -15 -17 -15 -95z"/>
<path d="M2130 1470 c0 -33 2 -35 34 -36 32 0 33 0 15 15 -10 9 -25 25 -34 36
-14 19 -14 18 -15 -15z"/>
</g>
</svg>
